<svg xmlns="http://www.w3.org/2000/svg" viewBox="0 0 64 64"><defs><style>.cls-1{fill:none;}.cls-2{fill:#704505;}.cls-3{fill:#8d6a37;}.cls-4{fill:#604826;}.cls-5{fill:#382202;}.cls-6{fill:#322d1b;}.cls-7{fill:#3a3a39;}.cls-8{fill:#a3885f;}.cls-9{fill:#898988;}</style></defs><g id="Capa_2" data-name="Capa 2"><g id="Capa_1-2" data-name="Capa 1"><rect class="cls-1" width="64" height="64"/><polygon class="cls-2" points="8.64 50.69 8.64 11.75 10.2 11.75 10.2 8.64 53.8 8.64 53.8 11.75 55.36 11.75 55.36 55.36 11.75 55.36 11.75 53.8 10.2 53.8 10.2 50.69 8.64 50.69"/><rect class="cls-3" x="13.31" y="13.31" width="37.38" height="37.38"/><rect class="cls-4" x="13.31" y="17.98" width="6.23" height="1.56"/><rect class="cls-4" x="13.31" y="25.77" width="3.11" height="1.56"/><rect class="cls-4" x="13.31" y="30.44" width="7.79" height="1.56"/><rect class="cls-4" x="21.1" y="36.67" width="3.11" height="1.56"/><rect class="cls-4" x="13.31" y="41.34" width="14.02" height="1.56"/><rect class="cls-4" x="35.11" y="41.34" width="4.67" height="1.56"/><rect class="cls-4" x="22.66" y="46.02" width="14.02" height="1.56"/><rect class="cls-4" x="30.44" y="36.67" width="20.25" height="1.56"/><rect class="cls-4" x="42.9" y="28.89" width="7.79" height="1.56"/><rect class="cls-4" x="44.46" y="19.54" width="6.23" height="1.56"/><rect class="cls-5" x="17.98" y="11.75" width="29.59" height="1.56"/><rect class="cls-5" x="50.69" y="13.31" width="1.56" height="31.15"/><rect class="cls-5" x="33.56" y="50.69" width="15.57" height="1.56"/><rect class="cls-5" x="14.87" y="50.69" width="17.13" height="1.56"/><rect class="cls-5" x="11.75" y="14.87" width="1.56" height="32.7"/><rect class="cls-5" x="47.57" y="13.31" width="3.11" height="1.56"/><rect class="cls-5" x="13.31" y="13.31" width="4.67" height="1.56"/><rect class="cls-5" x="13.31" y="47.57" width="1.56" height="3.11"/><rect class="cls-5" x="49.13" y="44.46" width="1.56" height="6.23"/><rect class="cls-5" x="32" y="49.13" width="1.56" height="1.56"/><rect class="cls-6" x="10.2" y="7.08" width="43.61" height="1.56"/><rect class="cls-6" x="55.36" y="11.75" width="1.56" height="24.92"/><rect class="cls-6" x="55.36" y="41.34" width="1.56" height="10.9"/><rect class="cls-6" x="27.33" y="55.36" width="26.47" height="1.56"/><rect class="cls-6" x="22.66" y="55.36" width="3.11" height="1.56"/><rect class="cls-6" x="11.75" y="55.36" width="9.34" height="1.56"/><rect class="cls-6" x="7.08" y="36.67" width="1.56" height="14.02"/><rect class="cls-6" x="7.08" y="11.75" width="1.56" height="23.36"/><rect class="cls-6" x="8.64" y="10.2" width="1.56" height="1.56"/><rect class="cls-6" x="8.64" y="8.64" width="1.56" height="1.56"/><rect class="cls-6" x="8.64" y="35.11" width="1.56" height="1.56"/><rect class="cls-6" x="8.64" y="50.69" width="1.56" height="3.11"/><rect class="cls-6" x="10.2" y="53.8" width="1.56" height="1.56"/><rect class="cls-6" x="53.8" y="52.25" width="1.56" height="3.11"/><rect class="cls-6" x="53.8" y="36.67" width="1.56" height="4.67"/><rect class="cls-6" x="53.8" y="8.64" width="1.56" height="3.11"/><rect class="cls-6" x="25.77" y="53.8" width="1.56" height="1.56"/><rect class="cls-6" x="21.1" y="53.8" width="1.56" height="1.56"/><rect class="cls-7" x="30.44" y="13.31" width="3.11" height="7.79"/><rect class="cls-7" x="33.56" y="16.43" width="1.56" height="1.56"/><rect class="cls-7" x="28.89" y="16.43" width="1.56" height="1.56"/><rect class="cls-7" x="27.33" y="17.98" width="1.56" height="1.56"/><rect class="cls-7" x="36.67" y="19.54" width="1.56" height="4.67"/><rect class="cls-7" x="25.77" y="19.54" width="1.56" height="6.23"/><rect class="cls-7" x="35.11" y="17.98" width="1.56" height="1.56"/><rect class="cls-7" x="36.67" y="24.21" width="1.56" height="1.56"/><rect class="cls-7" x="35.11" y="25.77" width="1.56" height="1.56"/><rect class="cls-7" x="27.33" y="25.77" width="1.56" height="1.56"/><rect class="cls-7" x="33.56" y="27.33" width="1.56" height="1.56"/><rect class="cls-7" x="32" y="27.33" width="1.56" height="1.56"/><rect class="cls-7" x="28.89" y="27.33" width="3.11" height="1.56"/><rect class="cls-8" x="33.56" y="49.13" width="15.57" height="1.56"/><rect class="cls-8" x="21.1" y="44.46" width="14.02" height="1.56"/><rect class="cls-8" x="14.87" y="39.79" width="14.02" height="1.56"/><rect class="cls-8" x="13.31" y="28.89" width="9.34" height="1.56"/><rect class="cls-8" x="14.87" y="24.21" width="1.56" height="1.56"/><rect class="cls-8" x="21.1" y="35.11" width="1.56" height="1.56"/><rect class="cls-8" x="36.67" y="39.79" width="4.67" height="1.56"/><rect class="cls-8" x="16.43" y="16.43" width="4.67" height="1.56"/><rect class="cls-8" x="41.34" y="17.98" width="7.79" height="1.56"/><rect class="cls-8" x="41.34" y="27.33" width="7.79" height="1.56"/><rect class="cls-8" x="35.11" y="35.11" width="15.57" height="1.56"/><rect class="cls-8" x="49.13" y="42.9" width="1.56" height="1.56"/><rect class="cls-8" x="13.31" y="46.02" width="1.56" height="1.56"/><rect class="cls-8" x="14.87" y="49.13" width="17.13" height="1.56"/><rect class="cls-9" x="28.89" y="25.77" width="6.23" height="1.56"/><rect class="cls-9" x="28.89" y="14.87" width="1.56" height="1.56"/><rect class="cls-9" x="30.44" y="11.75" width="1.56" height="1.56"/><rect class="cls-9" x="32" y="11.75" width="1.56" height="1.56"/><rect class="cls-9" x="33.56" y="14.87" width="1.56" height="1.56"/><rect class="cls-9" x="35.11" y="16.43" width="1.56" height="1.56"/><rect class="cls-9" x="36.67" y="17.98" width="1.56" height="1.56"/><rect class="cls-9" x="25.77" y="17.98" width="1.56" height="1.56"/><rect class="cls-9" x="27.33" y="16.43" width="1.56" height="1.56"/><rect class="cls-9" x="35.11" y="24.21" width="1.56" height="1.56"/><rect class="cls-9" x="27.33" y="24.21" width="1.56" height="1.56"/><rect class="cls-3" x="27.33" y="53.8" width="26.47" height="1.56"/><rect class="cls-3" x="22.66" y="53.8" width="3.11" height="1.56"/><rect class="cls-3" x="11.75" y="53.8" width="9.34" height="1.56"/><rect class="cls-3" x="10.2" y="52.25" width="1.56" height="1.56"/><rect class="cls-3" x="8.64" y="49.13" width="1.56" height="1.56"/><rect class="cls-3" x="53.8" y="50.69" width="1.56" height="1.56"/><rect class="cls-3" x="8.64" y="33.56" width="1.56" height="1.56"/><rect class="cls-3" x="11.75" y="13.31" width="1.56" height="1.56"/><rect class="cls-3" x="13.31" y="11.75" width="4.67" height="1.56"/><rect class="cls-3" x="47.57" y="11.75" width="4.67" height="1.56"/><rect class="cls-3" x="17.98" y="10.2" width="29.59" height="1.56"/></g></g></svg>