<svg xmlns="http://www.w3.org/2000/svg" viewBox="0 0 282.48 409.6"><defs><style>.cls-1{fill:#ddd19f;}.cls-2{fill:#483829;}.cls-3{fill:#2a1d26;}.cls-4{fill:#c3b286;}.cls-5{fill:#8e7b5b;}.cls-6{fill:#2e9335;}.cls-7{fill:#60ce3b;}</style></defs><g id="Capa_2" data-name="Capa 2"><g id="Capa_1-2" data-name="Capa 1"><rect class="cls-1" x="91.81" y="7.06" width="98.87" height="7.06"/><rect class="cls-1" x="91.81" y="14.12" width="98.87" height="105.93"/><rect class="cls-1" x="56.5" y="91.81" width="169.49" height="105.93"/><rect class="cls-1" x="91.81" y="204.8" width="98.87" height="77.68"/><rect class="cls-1" x="84.74" y="275.42" width="42.37" height="127.12"/><rect class="cls-1" x="155.36" y="275.42" width="42.37" height="127.12"/><rect class="cls-1" x="225.98" y="91.81" width="21.19" height="63.56"/><rect class="cls-1" x="35.31" y="91.81" width="21.19" height="63.56"/><rect class="cls-1" x="7.06" y="98.87" width="42.37" height="176.55"/><rect class="cls-1" x="233.05" y="98.87" width="42.37" height="176.55"/><rect class="cls-2" x="98.87" y="70.62" width="28.25" height="7.06"/><rect class="cls-2" x="155.36" y="70.62" width="28.25" height="7.06"/><rect class="cls-2" x="127.12" y="63.56" width="28.25" height="7.06"/><rect class="cls-2" x="127.12" y="91.81" width="28.25" height="7.06"/><rect class="cls-3" x="91.81" y="120.05" width="98.87" height="7.06"/><rect class="cls-3" x="91.81" width="98.87" height="7.06"/><rect class="cls-3" x="162.43" y="56.5" width="91.81" height="7.06" transform="translate(268.36 -148.3) rotate(90)"/><rect class="cls-3" x="211.86" y="84.74" width="35.31" height="7.06" transform="translate(459.03 176.55) rotate(180)"/><rect class="cls-3" x="233.05" y="148.3" width="14.12" height="7.06" transform="translate(480.22 303.67) rotate(180)"/><rect class="cls-3" x="254.23" y="91.81" width="21.19" height="7.06" transform="translate(529.65 190.67) rotate(180)"/><rect class="cls-3" x="222.45" y="116.52" width="56.5" height="7.06" transform="translate(130.65 370.76) rotate(-90)"/><rect class="cls-3" x="250.7" y="123.59" width="56.5" height="7.06" transform="translate(151.83 406.07) rotate(-90)"/><rect class="cls-3" x="243.64" y="180.08" width="56.5" height="7.06" transform="translate(88.28 455.5) rotate(-90)"/><rect class="cls-3" x="254.23" y="225.98" width="35.31" height="7.06" transform="translate(42.37 501.4) rotate(-90)"/><rect class="cls-3" x="208.33" y="215.39" width="56.5" height="7.06" transform="translate(17.66 455.5) rotate(-90)"/><rect class="cls-3" x="211.86" y="169.49" width="35.31" height="7.06" transform="translate(56.5 402.54) rotate(-90)"/><rect class="cls-3" x="204.8" y="190.67" width="21.19" height="7.06"/><rect class="cls-3" x="141.24" y="197.74" width="63.56" height="7.06"/><rect class="cls-3" x="120.05" y="282.48" width="42.37" height="7.06"/><rect class="cls-3" x="180.08" y="215.39" width="28.25" height="7.06" transform="translate(-24.72 413.13) rotate(-90)"/><rect class="cls-3" x="176.55" y="240.11" width="21.19" height="7.06" transform="translate(-56.5 430.78) rotate(-90)"/><rect class="cls-3" x="183.61" y="261.29" width="21.19" height="7.06" transform="translate(-70.62 459.03) rotate(-90)"/><rect class="cls-3" x="173.02" y="300.14" width="56.5" height="7.06" transform="translate(-102.4 504.93) rotate(-90)"/><rect class="cls-3" x="130.65" y="307.2" width="42.37" height="7.06" transform="translate(-158.9 462.56) rotate(-90)"/><rect class="cls-3" x="137.71" y="349.57" width="42.37" height="7.06" transform="translate(-194.21 512) rotate(-90)"/><rect class="cls-3" x="137.71" y="384.88" width="28.25" height="7.06" transform="translate(-236.58 540.24) rotate(-90)"/><rect class="cls-3" x="187.14" y="384.88" width="28.25" height="7.06" transform="translate(-187.14 589.68) rotate(-90)"/><rect class="cls-3" x="155.36" y="402.54" width="42.37" height="7.06"/><rect class="cls-3" x="215.39" y="257.76" width="28.25" height="7.06" transform="translate(-31.78 490.81) rotate(-90)"/><rect class="cls-3" x="264.83" y="257.76" width="28.25" height="7.06" transform="translate(17.66 540.24) rotate(-90)"/><rect class="cls-3" x="233.05" y="275.42" width="42.37" height="7.06"/><rect class="cls-3" x="173.02" y="349.57" width="42.37" height="7.06" transform="translate(-158.9 547.31) rotate(-90)"/><rect class="cls-3" x="35.31" y="84.74" width="35.31" height="7.06"/><rect class="cls-3" x="35.31" y="148.3" width="14.12" height="7.06"/><rect class="cls-3" x="7.06" y="91.81" width="21.19" height="7.06"/><rect class="cls-3" x="3.53" y="116.52" width="56.5" height="7.06" transform="translate(-88.28 151.83) rotate(-90)"/><rect class="cls-3" x="-24.72" y="123.59" width="56.5" height="7.06" transform="translate(-123.59 130.65) rotate(-90)"/><rect class="cls-3" x="-17.66" y="180.08" width="56.5" height="7.06" transform="translate(-173.02 194.21) rotate(-90)"/><rect class="cls-3" x="-7.06" y="225.98" width="35.31" height="7.06" transform="translate(-218.92 240.11) rotate(-90)"/><rect class="cls-3" x="17.66" y="215.39" width="56.5" height="7.06" transform="translate(-173.02 264.83) rotate(-90)"/><rect class="cls-3" x="35.31" y="169.49" width="35.31" height="7.06" transform="translate(-120.05 225.98) rotate(-90)"/><rect class="cls-3" x="56.5" y="190.67" width="21.19" height="7.06" transform="translate(134.18 388.41) rotate(180)"/><rect class="cls-3" x="77.68" y="197.74" width="63.56" height="7.06" transform="translate(218.92 402.54) rotate(180)"/><rect class="cls-3" x="74.15" y="215.39" width="28.25" height="7.06" transform="translate(-130.65 307.2) rotate(-90)"/><rect class="cls-3" x="84.74" y="240.11" width="21.19" height="7.06" transform="translate(-148.3 338.98) rotate(-90)"/><rect class="cls-3" x="77.68" y="261.29" width="21.19" height="7.06" transform="translate(-176.55 353.1) rotate(-90)"/><rect class="cls-3" x="52.97" y="300.14" width="56.5" height="7.06" transform="translate(-222.45 384.88) rotate(-90)"/><rect class="cls-3" x="109.46" y="307.2" width="42.37" height="7.06" transform="translate(-180.08 441.38) rotate(-90)"/><rect class="cls-3" x="102.4" y="349.57" width="42.37" height="7.06" transform="translate(-229.52 476.69) rotate(-90)"/><rect class="cls-3" x="116.52" y="384.88" width="28.25" height="7.06" transform="translate(-257.76 519.06) rotate(-90)"/><rect class="cls-3" x="67.09" y="384.88" width="28.25" height="7.06" transform="translate(-307.2 469.62) rotate(-90)"/><rect class="cls-3" x="84.74" y="402.54" width="42.37" height="7.06" transform="translate(211.86 812.13) rotate(180)"/><rect class="cls-3" x="38.84" y="257.76" width="28.25" height="7.06" transform="translate(-208.33 314.26) rotate(-90)"/><rect class="cls-3" x="-10.59" y="257.76" width="28.25" height="7.06" transform="translate(-257.76 264.83) rotate(-90)"/><rect class="cls-3" x="7.06" y="275.42" width="42.37" height="7.06" transform="translate(56.5 557.9) rotate(180)"/><rect class="cls-3" x="67.09" y="349.57" width="42.37" height="7.06" transform="translate(-264.83 441.38) rotate(-90)"/><rect class="cls-3" x="28.25" y="56.5" width="91.81" height="7.06" transform="translate(134.18 -14.12) rotate(90)"/><rect class="cls-3" x="77.68" y="105.93" width="7.06" height="7.06"/><rect class="cls-3" x="84.74" y="105.93" width="7.06" height="7.06"/><rect class="cls-3" x="84.74" y="112.99" width="7.06" height="7.06"/><rect class="cls-3" x="190.67" y="112.99" width="7.06" height="7.06" transform="translate(77.68 310.73) rotate(-90)"/><rect class="cls-3" x="190.67" y="105.93" width="7.06" height="7.06" transform="translate(84.74 303.67) rotate(-90)"/><rect class="cls-3" x="197.74" y="105.93" width="7.06" height="7.06" transform="translate(91.81 310.73) rotate(-90)"/><rect class="cls-3" x="197.74" y="7.06" width="7.06" height="7.06" transform="translate(402.54 21.19) rotate(180)"/><rect class="cls-3" x="190.67" y="7.06" width="7.06" height="7.06" transform="translate(388.41 21.19) rotate(180)"/><rect class="cls-3" x="84.74" y="7.06" width="7.06" height="7.06" transform="translate(98.87 -77.68) rotate(90)"/><rect class="cls-3" x="77.68" y="7.06" width="7.06" height="7.06" transform="translate(91.81 -70.62) rotate(90)"/><rect class="cls-4" x="38.84" y="52.97" width="91.81" height="14.12" transform="translate(144.77 -24.72) rotate(90)"/><rect class="cls-4" x="151.83" y="52.97" width="91.81" height="14.12" transform="translate(257.76 -137.71) rotate(90)"/><rect class="cls-4" x="148.3" y="56.5" width="35.31" height="7.06"/><rect class="cls-4" x="91.81" y="127.12" width="98.87" height="7.06" transform="translate(282.48 261.29) rotate(180)"/><rect class="cls-4" x="35.31" y="91.81" width="35.31" height="7.06" transform="translate(105.93 190.67) rotate(180)"/><rect class="cls-4" x="7.06" y="98.87" width="21.19" height="7.06" transform="translate(35.31 204.8) rotate(180)"/><rect class="cls-4" x="254.23" y="98.87" width="21.19" height="7.06" transform="translate(529.65 204.8) rotate(180)"/><rect class="cls-4" x="247.17" y="112.99" width="21.19" height="7.06" transform="translate(141.24 374.29) rotate(-90)"/><rect class="cls-4" x="14.12" y="112.99" width="21.19" height="7.06" transform="translate(-91.81 141.24) rotate(-90)"/><rect class="cls-4" x="28.25" y="169.49" width="35.31" height="7.06" transform="translate(-127.12 218.92) rotate(-90)"/><rect class="cls-4" x="218.92" y="169.49" width="35.31" height="7.06" transform="translate(63.56 409.6) rotate(-90)"/><rect class="cls-4" x="211.86" y="91.81" width="35.31" height="7.06" transform="translate(459.03 190.67) rotate(180)"/><rect class="cls-4" x="112.99" y="7.06" width="35.31" height="7.06" transform="translate(261.29 21.19) rotate(180)"/><rect class="cls-4" x="190.67" y="120.05" width="7.06" height="7.06" transform="translate(388.41 247.17) rotate(180)"/><rect class="cls-4" x="183.61" y="190.67" width="14.12" height="7.06" transform="translate(381.35 388.41) rotate(180)"/><rect class="cls-4" x="176.55" y="211.86" width="14.12" height="7.06" transform="translate(367.23 430.78) rotate(180)"/><rect class="cls-4" x="112.99" y="218.92" width="49.43" height="7.06" transform="translate(275.42 444.91) rotate(180)"/><rect class="cls-4" x="91.81" y="211.86" width="14.12" height="7.06" transform="translate(197.74 430.78) rotate(180)"/><rect class="cls-4" x="84.74" y="120.05" width="7.06" height="7.06" transform="translate(176.55 247.17) rotate(180)"/><rect class="cls-4" x="77.68" y="112.99" width="7.06" height="7.06" transform="translate(162.43 233.05) rotate(180)"/><rect class="cls-4" x="70.62" y="105.93" width="7.06" height="7.06" transform="translate(148.3 218.92) rotate(180)"/><rect class="cls-4" x="197.74" y="112.99" width="7.06" height="7.06" transform="translate(402.54 233.05) rotate(180)"/><rect class="cls-4" x="204.8" y="105.93" width="7.06" height="7.06" transform="translate(416.66 218.92) rotate(180)"/><rect class="cls-4" x="254.23" y="268.36" width="21.19" height="7.06"/><rect class="cls-4" x="264.83" y="250.7" width="14.12" height="7.06" transform="translate(526.12 -17.66) rotate(90)"/><rect class="cls-4" x="225.98" y="254.23" width="21.19" height="7.06" transform="translate(494.34 21.19) rotate(90)"/><rect class="cls-4" x="7.06" y="268.36" width="21.19" height="7.06" transform="translate(35.31 543.78) rotate(-180)"/><rect class="cls-4" x="3.53" y="250.7" width="14.12" height="7.06" transform="translate(264.83 243.64) rotate(90)"/><rect class="cls-4" x="35.31" y="254.23" width="21.19" height="7.06" transform="translate(303.67 211.86) rotate(90)"/><rect class="cls-4" x="233.05" y="211.86" width="63.56" height="7.06" transform="translate(480.22 -49.43) rotate(90)"/><rect class="cls-4" x="-14.12" y="211.86" width="63.56" height="7.06" transform="translate(233.05 197.74) rotate(90)"/><rect class="cls-4" x="60.03" y="300.14" width="56.5" height="7.06" transform="translate(391.94 215.39) rotate(90)"/><rect class="cls-4" x="165.96" y="300.14" width="56.5" height="7.06" transform="translate(497.87 109.46) rotate(90)"/><rect class="cls-4" x="180.08" y="335.45" width="14.12" height="7.06" transform="translate(526.12 151.83) rotate(90)"/><rect class="cls-4" x="176.55" y="360.16" width="21.19" height="7.06" transform="translate(550.84 176.55) rotate(90)"/><rect class="cls-4" x="81.21" y="356.63" width="28.25" height="7.06" transform="translate(455.5 264.83) rotate(90)"/><rect class="cls-4" x="162.43" y="338.98" width="7.06" height="7.06" transform="translate(508.47 176.55) rotate(90)"/><rect class="cls-4" x="109.46" y="335.45" width="14.12" height="7.06" transform="translate(455.5 222.45) rotate(90)"/><rect class="cls-4" x="109.46" y="377.82" width="14.12" height="7.06" transform="translate(497.87 264.83) rotate(90)"/><rect class="cls-4" x="173.02" y="370.76" width="7.06" height="28.25" transform="translate(561.43 208.33) rotate(90)"/><rect class="cls-4" x="173.02" y="377.82" width="7.06" height="42.37" transform="translate(575.55 222.45) rotate(90)"/><rect class="cls-4" x="102.4" y="370.76" width="7.06" height="28.25" transform="translate(490.81 278.95) rotate(90)"/><rect class="cls-4" x="102.4" y="377.82" width="7.06" height="42.37" transform="translate(504.93 293.07) rotate(90)"/><rect class="cls-4" x="105.93" y="338.98" width="7.06" height="7.06" transform="translate(451.97 233.05) rotate(90)"/><rect class="cls-4" x="84.74" y="261.29" width="21.19" height="7.06" transform="translate(360.16 169.49) rotate(90)"/><rect class="cls-4" x="98.87" y="268.36" width="21.19" height="7.06"/><rect class="cls-4" x="169.49" y="268.36" width="14.12" height="7.06"/><rect class="cls-4" x="176.55" y="261.29" width="21.19" height="7.06" transform="translate(451.97 77.68) rotate(90)"/><rect class="cls-4" x="148.3" y="310.73" width="21.19" height="7.06" transform="translate(473.16 155.36) rotate(90)"/><rect class="cls-4" x="176.55" y="218.92" width="21.19" height="7.06" transform="translate(409.6 35.31) rotate(90)"/><rect class="cls-4" x="84.74" y="218.92" width="21.19" height="7.06" transform="translate(317.79 127.12) rotate(90)"/><rect class="cls-4" x="229.52" y="201.27" width="28.25" height="7.06" transform="translate(448.44 -38.84) rotate(90)"/><rect class="cls-4" x="24.72" y="201.27" width="28.25" height="7.06" transform="translate(243.64 165.96) rotate(90)"/><rect class="cls-4" x="257.76" y="137.71" width="28.25" height="7.06" transform="translate(413.13 -130.65) rotate(90)"/><rect class="cls-4" x="-3.53" y="137.71" width="28.25" height="7.06" transform="translate(151.83 130.65) rotate(90)"/><rect class="cls-4" x="127.12" y="169.49" width="7.06" height="7.06"/><rect class="cls-4" x="112.99" y="162.43" width="7.06" height="7.06"/><rect class="cls-4" x="120.05" y="148.3" width="7.06" height="7.06"/><rect class="cls-4" x="91.81" y="169.49" width="7.06" height="7.06"/><rect class="cls-4" x="233.05" y="120.05" width="14.12" height="7.06"/><rect class="cls-4" x="35.31" y="127.12" width="7.06" height="7.06"/><rect class="cls-4" x="134.18" y="176.55" width="7.06" height="7.06"/><rect class="cls-4" x="155.36" y="261.29" width="7.06" height="7.06"/><rect class="cls-4" x="148.3" y="254.23" width="7.06" height="7.06"/><rect class="cls-4" x="134.18" y="261.29" width="7.06" height="7.06"/><rect class="cls-4" x="134.18" y="261.29" width="7.06" height="7.06"/><rect class="cls-4" x="155.36" y="247.17" width="7.06" height="7.06"/><rect class="cls-4" x="112.99" y="310.73" width="21.19" height="7.06" transform="translate(437.85 190.67) rotate(90)"/><rect class="cls-5" x="91.81" y="112.99" width="98.87" height="7.06"/><rect class="cls-5" x="86.51" y="100.63" width="17.66" height="7.06" transform="translate(-8.83 199.5) rotate(-90)"/><rect class="cls-5" x="56.5" y="49.43" width="63.56" height="7.06" transform="translate(35.31 141.24) rotate(-90)"/><rect class="cls-5" x="169.49" y="70.62" width="49.43" height="7.06" transform="translate(120.05 268.36) rotate(-90)"/><rect class="cls-5" x="178.32" y="100.63" width="17.66" height="7.06" transform="translate(82.98 291.31) rotate(-90)"/><rect class="cls-5" x="98.87" y="56.5" width="49.43" height="7.06"/><rect class="cls-5" x="98.87" y="56.5" width="28.25" height="7.06"/><rect class="cls-5" x="91.81" y="63.56" width="7.06" height="7.06"/><rect class="cls-5" x="183.61" y="63.56" width="7.06" height="7.06"/><rect class="cls-5" x="176.55" y="169.49" width="49.43" height="7.06" transform="translate(28.25 374.29) rotate(-90)"/><rect class="cls-5" x="84.74" y="190.67" width="98.87" height="7.06"/><rect class="cls-5" x="91.81" y="204.8" width="98.87" height="7.06"/><rect class="cls-5" x="105.93" y="211.86" width="70.62" height="7.06"/><rect class="cls-5" x="56.5" y="183.61" width="21.19" height="7.06"/><rect class="cls-5" x="21.19" y="155.36" width="21.19" height="7.06"/><rect class="cls-5" x="240.11" y="155.36" width="21.19" height="7.06"/><rect class="cls-5" x="233.05" y="268.36" width="21.19" height="7.06"/><rect class="cls-5" x="254.23" y="261.29" width="21.19" height="7.06"/><rect class="cls-5" x="162.43" y="374.29" width="28.25" height="7.06"/><rect class="cls-5" x="91.81" y="374.29" width="21.19" height="7.06"/><rect class="cls-5" x="28.25" y="268.36" width="21.19" height="7.06" transform="translate(77.68 543.78) rotate(-180)"/><rect class="cls-5" x="7.06" y="261.29" width="21.19" height="7.06" transform="translate(35.31 529.65) rotate(-180)"/><rect class="cls-5" x="204.8" y="183.61" width="21.19" height="7.06"/><rect class="cls-5" x="63.56" y="176.55" width="35.31" height="7.06" transform="translate(-98.87 261.29) rotate(-90)"/><rect class="cls-5" x="116.52" y="137.71" width="14.12" height="7.06" transform="translate(-17.66 264.83) rotate(-90)"/><rect class="cls-5" x="31.78" y="116.52" width="14.12" height="7.06" transform="translate(-81.21 158.9) rotate(-90)"/><rect class="cls-5" x="109.46" y="151.83" width="14.12" height="7.06" transform="translate(-38.84 271.89) rotate(-90)"/><rect class="cls-5" x="98.87" y="162.43" width="14.12" height="7.06"/><rect class="cls-5" x="120.05" y="162.43" width="14.12" height="7.06"/><rect class="cls-5" x="155.36" y="240.11" width="14.12" height="7.06"/><rect class="cls-5" x="141.24" y="247.17" width="14.12" height="7.06"/><rect class="cls-5" x="233.05" y="112.99" width="14.12" height="7.06"/><rect class="cls-5" x="134.18" y="169.49" width="7.06" height="7.06"/><rect class="cls-5" x="42.37" y="127.12" width="7.06" height="7.06"/><rect class="cls-5" x="141.24" y="176.55" width="7.06" height="7.06"/><rect class="cls-5" x="155.36" y="254.23" width="7.06" height="7.06"/><rect class="cls-5" x="162.43" y="261.29" width="7.06" height="7.06"/><rect class="cls-5" x="155.36" y="289.54" width="7.06" height="14.12"/><rect class="cls-5" x="120.05" y="289.54" width="7.06" height="21.19"/><rect class="cls-5" x="84.74" y="296.6" width="7.06" height="21.19"/><rect class="cls-5" x="102.4" y="328.38" width="7.06" height="14.12" transform="translate(-229.52 441.38) rotate(-90)"/><rect class="cls-5" x="173.02" y="328.38" width="7.06" height="14.12" transform="translate(-158.9 512) rotate(-90)"/><rect class="cls-5" x="190.67" y="282.48" width="7.06" height="35.31"/><rect class="cls-5" x="134.18" y="254.23" width="7.06" height="7.06"/><rect class="cls-5" x="225.98" y="120.05" width="7.06" height="7.06"/><rect class="cls-5" x="268.36" y="98.87" width="7.06" height="7.06"/><rect class="cls-5" x="14.12" y="98.87" width="7.06" height="7.06"/><rect class="cls-6" x="155.36" y="63.56" width="28.25" height="7.06"/><rect class="cls-6" x="98.87" y="63.56" width="28.25" height="7.06"/><rect class="cls-6" x="176.55" y="141.24" width="7.06" height="7.06"/><rect class="cls-6" x="148.3" y="7.06" width="42.37" height="7.06"/><rect class="cls-6" x="91.81" y="7.06" width="21.19" height="7.06"/><rect class="cls-6" x="77.68" y="14.12" width="21.19" height="7.06"/><rect class="cls-6" x="77.68" y="21.19" width="14.12" height="7.06"/><rect class="cls-6" x="162.43" y="14.12" width="42.37" height="7.06"/><rect class="cls-6" x="176.55" y="28.25" width="7.06" height="7.06"/><rect class="cls-6" x="176.55" y="35.31" width="7.06" height="7.06"/><rect class="cls-6" x="176.55" y="14.12" width="7.06" height="14.12"/><rect class="cls-6" x="148.3" y="127.12" width="35.31" height="7.06"/><rect class="cls-6" x="211.86" y="91.81" width="35.31" height="7.06"/><rect class="cls-6" x="35.31" y="91.81" width="21.19" height="7.06"/><rect class="cls-6" x="169.49" y="134.18" width="14.12" height="7.06"/><rect class="cls-6" x="233.05" y="98.87" width="14.12" height="7.06"/><rect class="cls-6" x="268.36" y="268.36" width="7.06" height="7.06"/><rect class="cls-6" x="7.06" y="268.36" width="7.06" height="7.06"/><rect class="cls-6" x="14.12" y="268.36" width="7.06" height="7.06"/><rect class="cls-6" x="14.12" y="261.29" width="7.06" height="7.06"/><rect class="cls-6" x="21.19" y="268.36" width="7.06" height="7.06"/><rect class="cls-6" x="28.25" y="268.36" width="7.06" height="7.06"/><rect class="cls-6" x="261.29" y="98.87" width="7.06" height="7.06"/><rect class="cls-6" x="254.23" y="98.87" width="7.06" height="7.06"/><rect class="cls-6" x="254.23" y="105.93" width="7.06" height="7.06"/><rect class="cls-6" x="254.23" y="112.99" width="7.06" height="7.06"/><rect class="cls-6" x="14.12" y="98.87" width="7.06" height="7.06"/><rect class="cls-6" x="7.06" y="98.87" width="7.06" height="7.06"/><rect class="cls-6" x="35.31" y="268.36" width="7.06" height="7.06"/><rect class="cls-6" x="7.06" y="261.29" width="7.06" height="7.06"/><rect class="cls-6" x="268.36" y="261.29" width="7.06" height="7.06"/><rect class="cls-6" x="190.67" y="296.6" width="7.06" height="7.06"/><rect class="cls-6" x="190.67" y="282.48" width="7.06" height="7.06"/><rect class="cls-6" x="91.81" y="211.86" width="7.06" height="7.06"/><rect class="cls-6" x="98.87" y="211.86" width="7.06" height="7.06"/><rect class="cls-6" x="105.93" y="218.92" width="7.06" height="7.06"/><rect class="cls-6" x="112.99" y="225.98" width="7.06" height="7.06"/><rect class="cls-6" x="120.05" y="233.05" width="7.06" height="7.06"/><rect class="cls-6" x="98.87" y="218.92" width="7.06" height="7.06"/><rect class="cls-6" x="190.67" y="303.67" width="7.06" height="7.06"/><rect class="cls-6" x="183.61" y="289.54" width="7.06" height="7.06"/><rect class="cls-6" x="183.61" y="303.67" width="7.06" height="7.06"/><rect class="cls-6" x="176.55" y="310.73" width="7.06" height="7.06"/><rect class="cls-6" x="169.49" y="317.79" width="7.06" height="7.06"/><rect class="cls-6" x="261.29" y="268.36" width="7.06" height="7.06"/><rect class="cls-6" x="190.67" y="395.47" width="7.06" height="7.06"/><rect class="cls-6" x="183.61" y="395.47" width="7.06" height="7.06"/><rect class="cls-6" x="176.55" y="395.47" width="7.06" height="7.06"/><rect class="cls-6" x="162.43" y="395.47" width="7.06" height="7.06"/><rect class="cls-6" x="120.05" y="395.47" width="7.06" height="7.06"/><rect class="cls-6" x="120.05" y="388.41" width="7.06" height="7.06"/><rect class="cls-6" x="84.74" y="388.41" width="7.06" height="7.06"/><rect class="cls-6" x="84.74" y="381.35" width="7.06" height="7.06"/><rect class="cls-6" x="84.74" y="395.47" width="7.06" height="7.06"/><rect class="cls-6" x="91.81" y="395.47" width="7.06" height="7.06"/><rect class="cls-6" x="98.87" y="395.47" width="7.06" height="7.06"/><rect class="cls-6" x="190.67" y="388.41" width="7.06" height="7.06"/><rect class="cls-6" x="155.36" y="395.47" width="7.06" height="7.06"/><rect class="cls-6" x="155.36" y="388.41" width="7.06" height="7.06"/><rect class="cls-7" x="162.43" y="63.56" width="7.06" height="7.06"/><rect class="cls-7" x="162.43" y="134.18" width="7.06" height="7.06"/><rect class="cls-7" x="169.49" y="141.24" width="7.06" height="7.06"/><rect class="cls-7" x="176.55" y="141.24" width="7.06" height="7.06"/><rect class="cls-7" x="176.55" y="148.3" width="7.06" height="7.06"/><rect class="cls-7" x="240.11" y="105.93" width="7.06" height="7.06"/><rect class="cls-7" x="35.31" y="98.87" width="7.06" height="7.06"/><rect class="cls-7" x="112.99" y="63.56" width="7.06" height="7.06"/><rect class="cls-7" x="155.36" y="14.12" width="21.19" height="7.06"/><rect class="cls-7" x="84.74" y="21.19" width="14.12" height="7.06"/><rect class="cls-7" x="98.87" y="14.12" width="7.06" height="7.06"/><rect class="cls-7" x="162.43" y="21.19" width="14.12" height="7.06"/><rect class="cls-7" x="169.49" y="28.25" width="7.06" height="7.06"/><rect class="cls-7" x="183.61" y="21.19" width="7.06" height="7.06"/><rect class="cls-7" x="190.67" y="21.19" width="7.06" height="7.06"/><rect class="cls-7" x="148.3" y="127.12" width="7.06" height="7.06"/><rect class="cls-7" x="268.36" y="254.23" width="7.06" height="7.06"/><rect class="cls-7" x="190.67" y="381.35" width="7.06" height="7.06"/><rect class="cls-7" x="112.99" y="395.47" width="7.06" height="7.06"/><rect class="cls-7" x="120.05" y="381.35" width="7.06" height="7.06"/><rect class="cls-7" x="183.61" y="388.41" width="7.06" height="7.06"/><rect class="cls-7" x="155.36" y="381.35" width="7.06" height="7.06"/><rect class="cls-7" x="261.29" y="105.93" width="7.06" height="7.06"/><rect class="cls-7" x="261.29" y="261.29" width="7.06" height="7.06"/><rect class="cls-7" x="254.23" y="268.36" width="7.06" height="7.06"/><rect class="cls-7" x="183.61" y="296.6" width="7.06" height="7.06"/><rect class="cls-7" x="105.93" y="225.98" width="7.06" height="7.06"/><rect class="cls-7" x="112.99" y="233.05" width="7.06" height="7.06"/><rect class="cls-7" x="91.81" y="218.92" width="7.06" height="7.06"/><rect class="cls-7" x="190.67" y="289.54" width="7.06" height="7.06"/><rect class="cls-7" x="176.55" y="303.67" width="7.06" height="7.06"/><rect class="cls-7" x="169.49" y="310.73" width="7.06" height="7.06"/><rect class="cls-7" x="21.19" y="261.29" width="7.06" height="7.06"/><rect class="cls-7" x="14.12" y="254.23" width="7.06" height="7.06"/><rect class="cls-7" x="7.06" y="105.93" width="7.06" height="7.06"/><rect class="cls-7" x="7.06" y="254.23" width="7.06" height="7.06"/><rect class="cls-7" x="211.86" y="91.81" width="7.06" height="7.06"/><rect class="cls-7" x="233.05" y="98.87" width="7.06" height="7.06"/><rect class="cls-7" x="49.43" y="91.81" width="7.06" height="7.06"/><rect class="cls-7" x="84.74" y="381.35" width="7.06" height="7.06"/></g></g></svg>